<mxfile host="65bd71144e">
    <diagram id="ffOdaC3Z6ZbjmIKCaGeu" name="Page-1">
        <mxGraphModel dx="1685" dy="1128" grid="1" gridSize="10" guides="1" tooltips="1" connect="1" arrows="1" fold="1" page="1" pageScale="1" pageWidth="827" pageHeight="1169" math="0" shadow="0">
            <root>
                <mxCell id="0"/>
                <mxCell id="1" parent="0"/>
                <mxCell id="6" style="edgeStyle=none;html=1;entryX=0;entryY=0.5;entryDx=0;entryDy=0;fontSize=18;" parent="1" source="2" target="5" edge="1">
                    <mxGeometry relative="1" as="geometry"/>
                </mxCell>
                <mxCell id="2" value="&lt;font style=&quot;font-size: 18px&quot;&gt;&lt;b&gt;3494 original images&lt;/b&gt;&lt;/font&gt;" style="rounded=1;whiteSpace=wrap;html=1;strokeColor=#000000;fillColor=#87ABF5;" parent="1" vertex="1">
                    <mxGeometry x="-330" y="278.75" width="143" height="86" as="geometry"/>
                </mxCell>
                <mxCell id="29" style="edgeStyle=none;html=1;entryX=0.03;entryY=0.619;entryDx=0;entryDy=0;entryPerimeter=0;fontFamily=Helvetica;fontSize=18;fontColor=default;strokeColor=#000000;" parent="1" source="5" target="20" edge="1">
                    <mxGeometry relative="1" as="geometry"/>
                </mxCell>
                <mxCell id="30" value="randomly choose one" style="edgeLabel;html=1;align=center;verticalAlign=middle;resizable=0;points=[];fontSize=18;fontFamily=Helvetica;fontColor=default;" parent="29" vertex="1" connectable="0">
                    <mxGeometry x="-0.1875" y="4" relative="1" as="geometry">
                        <mxPoint x="15" y="1" as="offset"/>
                    </mxGeometry>
                </mxCell>
                <mxCell id="5" value="&lt;font style=&quot;font-size: 18px&quot;&gt;&lt;b&gt;segmented car with new background&lt;/b&gt;&lt;br&gt;&lt;/font&gt;" style="rounded=1;whiteSpace=wrap;html=1;fillColor=#87ABF5;strokeColor=#000000;" parent="1" vertex="1">
                    <mxGeometry x="-110" y="278.75" width="203" height="88" as="geometry"/>
                </mxCell>
                <mxCell id="27" style="edgeStyle=none;html=1;fontFamily=Helvetica;fontSize=12;fontColor=default;strokeColor=#000000;" parent="1" source="10" edge="1">
                    <mxGeometry relative="1" as="geometry">
                        <mxPoint x="-145" y="320" as="targetPoint"/>
                    </mxGeometry>
                </mxCell>
                <mxCell id="28" value="&lt;font style=&quot;font-size: 18px&quot;&gt;randomly&lt;/font&gt;" style="edgeLabel;html=1;align=center;verticalAlign=middle;resizable=0;points=[];fontSize=12;fontFamily=Helvetica;fontColor=default;" parent="27" vertex="1" connectable="0">
                    <mxGeometry x="-0.3645" relative="1" as="geometry">
                        <mxPoint y="1" as="offset"/>
                    </mxGeometry>
                </mxCell>
                <mxCell id="10" value="&lt;span&gt;background images&lt;/span&gt;" style="ellipse;whiteSpace=wrap;html=1;fontSize=18;strokeColor=#000000;fillColor=#B84A55;" parent="1" vertex="1">
                    <mxGeometry x="-210" y="137" width="130" height="83" as="geometry"/>
                </mxCell>
                <mxCell id="22" style="edgeStyle=none;html=1;entryX=0;entryY=0.5;entryDx=0;entryDy=0;fontSize=18;strokeColor=#000000;" parent="1" target="21" edge="1">
                    <mxGeometry relative="1" as="geometry">
                        <mxPoint x="520" y="323" as="sourcePoint"/>
                    </mxGeometry>
                </mxCell>
                <mxCell id="20" value="" style="rounded=0;whiteSpace=wrap;html=1;fontSize=18;fillColor=#E3DE94;" parent="1" vertex="1">
                    <mxGeometry x="314" y="137" width="200" height="300" as="geometry"/>
                </mxCell>
                <mxCell id="12" value="center crop" style="rounded=0;whiteSpace=wrap;html=1;fontSize=18;strokeColor=#000000;fillColor=#B84A55;" parent="1" vertex="1">
                    <mxGeometry x="354" y="164" width="120" height="40" as="geometry"/>
                </mxCell>
                <mxCell id="13" value="random rotate 90" style="rounded=0;whiteSpace=wrap;html=1;fontSize=18;strokeColor=#000000;fillColor=#B84A55;" parent="1" vertex="1">
                    <mxGeometry x="334" y="214" width="160" height="40" as="geometry"/>
                </mxCell>
                <mxCell id="14" value="distortion" style="rounded=0;whiteSpace=wrap;html=1;fontSize=18;strokeColor=#000000;fillColor=#B84A55;" parent="1" vertex="1">
                    <mxGeometry x="354" y="264" width="120" height="40" as="geometry"/>
                </mxCell>
                <mxCell id="15" value="horizontal flip" style="rounded=0;whiteSpace=wrap;html=1;fontSize=18;strokeColor=#000000;fillColor=#B84A55;" parent="1" vertex="1">
                    <mxGeometry x="344" y="314" width="140" height="40" as="geometry"/>
                </mxCell>
                <mxCell id="16" value="vertical flip" style="rounded=0;whiteSpace=wrap;html=1;fontSize=18;strokeColor=#000000;fillColor=#B84A55;" parent="1" vertex="1">
                    <mxGeometry x="354" y="364" width="120" height="40" as="geometry"/>
                </mxCell>
                <mxCell id="21" value="&lt;font style=&quot;font-size: 18px&quot;&gt;&lt;b&gt;6988 new images&lt;/b&gt;&lt;/font&gt;" style="rounded=1;whiteSpace=wrap;html=1;fillColor=#E8B968;" parent="1" vertex="1">
                    <mxGeometry x="600" y="287.5" width="120" height="70.5" as="geometry"/>
                </mxCell>
                <mxCell id="38" value="" style="edgeStyle=none;html=1;fontSize=18;" edge="1" parent="1" source="32" target="36">
                    <mxGeometry relative="1" as="geometry"/>
                </mxCell>
                <mxCell id="32" value="&lt;font style=&quot;font-size: 18px&quot;&gt;&lt;b&gt;3494 original images&lt;/b&gt;&lt;/font&gt;" style="rounded=1;whiteSpace=wrap;html=1;strokeColor=#000000;fillColor=#87ABF5;" vertex="1" parent="1">
                    <mxGeometry x="-330" y="750" width="143" height="86" as="geometry"/>
                </mxCell>
                <mxCell id="39" value="" style="edgeStyle=none;html=1;fontSize=18;" edge="1" parent="1" source="36" target="37">
                    <mxGeometry relative="1" as="geometry"/>
                </mxCell>
                <mxCell id="36" value="&lt;font style=&quot;font-size: 18px&quot;&gt;left-right flip &lt;br&gt;(P = 0.5)&lt;/font&gt;" style="rhombus;whiteSpace=wrap;html=1;fontSize=14;" vertex="1" parent="1">
                    <mxGeometry x="-83.5" y="718" width="150" height="150" as="geometry"/>
                </mxCell>
                <mxCell id="37" value="&lt;span style=&quot;font-size: 18px&quot;&gt;random translation &amp;amp; padding&lt;/span&gt;" style="rhombus;whiteSpace=wrap;html=1;fontSize=14;" vertex="1" parent="1">
                    <mxGeometry x="120" y="718" width="150" height="150" as="geometry"/>
                </mxCell>
            </root>
        </mxGraphModel>
    </diagram>
</mxfile>